HIERARCHY
ROOT Hips
{
	OFFSET -0.179506 -22.333345 2.821913
	CHANNELS 6 Xposition Yposition Zposition Zrotation Yrotation Xrotation 
	JOINT LeftUpLeg
	{
		OFFSET 6.951974 -9.140623 -0.681533
		CHANNELS 3 Zrotation Yrotation Xrotation
		JOINT LeftLeg
		{
			OFFSET 3.427654 -37.519855 -0.449580
			CHANNELS 3 Zrotation Yrotation Xrotation
			JOINT LeftFoot
			{
				OFFSET -1.359570 -39.796059 -4.369333
				CHANNELS 3 Zrotation Yrotation Xrotation
				JOINT LeftToe
				{
					OFFSET 2.635814 -5.579078 11.928840
					CHANNELS 3 Zrotation Yrotation Xrotation
					End Site
					{
						OFFSET 0.000000 0.000000 0.000000
					}
				}
			}
		}
	}
	JOINT RightUpLeg
	{
		OFFSET -6.767048 -9.052170 -0.431982
		CHANNELS 3 Zrotation Yrotation Xrotation
		JOINT RightLeg
		{
			OFFSET -3.829005 -38.256897 -0.885003
			CHANNELS 3 Zrotation Yrotation Xrotation
			JOINT RightFoot
			{
				OFFSET 1.577377 -39.841461 -4.231180
				CHANNELS 3 Zrotation Yrotation Xrotation
				JOINT RightToe
				{
					OFFSET -2.537174 -4.814398 12.334795
					CHANNELS 3 Zrotation Yrotation Xrotation
					End Site
					{
						OFFSET 0.000000 0.000000 0.000000
					}
				}
			}
		}
	}
	JOINT Spine
	{
		OFFSET -0.253288 10.896323 -2.669631
		CHANNELS 3 Zrotation Yrotation Xrotation
		JOINT Spine1
		{
			OFFSET 0.548704 13.518043 0.109247
			CHANNELS 3 Zrotation Yrotation Xrotation
			JOINT Spine2
			{
				OFFSET 0.145701 5.292222 2.542457
				CHANNELS 3 Zrotation Yrotation Xrotation
				JOINT Neck
				{
					OFFSET -0.277840 21.387037 -4.285703
					CHANNELS 3 Zrotation Yrotation Xrotation
					JOINT Head
					{
						OFFSET 0.515184 6.496960 5.134897
						CHANNELS 3 Zrotation Yrotation Xrotation
						End Site
						{
							OFFSET 0.000000 0.000000 0.000000
						}
					}
				}
				JOINT LeftShoulder
				{
					OFFSET 7.884473 12.174932 -3.408961
					CHANNELS 3 Zrotation Yrotation Xrotation
					JOINT LeftArm
					{
						OFFSET 9.097692 3.046888 -0.886815
						CHANNELS 3 Zrotation Yrotation Xrotation
						JOINT LeftForeArm
						{
							OFFSET 25.961220 -1.277207 -2.745643
							CHANNELS 3 Zrotation Yrotation Xrotation
							JOINT LeftHand
							{
								OFFSET 24.923361 0.898606 -0.117091
								CHANNELS 3 Zrotation Yrotation Xrotation
								End Site
								{
									OFFSET 0.000000 0.000000 0.000000
								}
							}
						}
					}
				}
				JOINT RightShoulder
				{
					OFFSET -8.175920 11.883285 -3.861528
					CHANNELS 3 Zrotation Yrotation Xrotation
					JOINT RightArm
					{
						OFFSET -9.601238 3.255117 -0.914307
						CHANNELS 3 Zrotation Yrotation Xrotation
						JOINT RightForeArm
						{
							OFFSET -25.374195 -1.332924 -2.140099
							CHANNELS 3 Zrotation Yrotation Xrotation
							JOINT RightHand
							{
								OFFSET -25.529810 0.777228 -0.555919
								CHANNELS 3 Zrotation Yrotation Xrotation
								End Site
								{
									OFFSET 0.000000 0.000000 0.000000
								}
							}
						}
					}
				}
			}
		}
	}
}
MOTION
Frames: 10
Frame Time: 0.033333
-17.823568 -0.838960 89.851250 -124.260539 2.701551 83.904017 15.708762 7.160444 -3.043780 -5.808628 2.569611 27.278589 1.819932 10.535703 -28.727830 nan nan nan -13.756999 -9.204835 -12.689091 3.301500 -7.072423 14.191896 5.952377 -2.678749 -2.577866 nan nan nan -6.766314 0.895820 2.249083 8.227845 -7.518856 13.813010 1.245275 -1.055464 -8.253193 3.259796 -20.489464 18.036630 5.596786 -16.955201 18.510205 -19.472084 -10.243674 6.688524 -61.821514 -43.887448 30.102250 154.672745 -67.218083 -126.483853 -3.478552 -18.875576 -5.421626 20.529598 4.734752 -1.380077 36.574640 17.424656 -4.055729 -76.465055 48.305517 -57.103877 3.825052 6.207716 -1.982872 
-17.907154 -0.851241 89.821991 -124.240541 2.564029 83.789479 15.564452 7.119589 -2.885451 -5.797840 2.602273 27.169218 1.881970 10.529037 -28.643001 nan nan nan -14.029512 -9.314632 -12.591895 3.389066 -7.091378 14.250791 5.922095 -2.575198 -2.636627 nan nan nan -6.695945 0.866763 2.242754 8.092648 -7.545747 13.980687 1.113449 -1.073186 -8.317401 3.305319 -20.511412 17.946113 5.453408 -16.960734 18.650191 -19.444666 -10.197846 6.616604 -61.778457 -43.907363 30.169518 154.447564 -67.209916 -126.281714 -3.629845 -18.877133 -5.331332 20.452822 4.691027 -1.413593 36.831403 17.510113 -3.836474 -76.604226 48.135821 -57.183279 3.883807 6.146203 -2.075093 
-17.949793 -0.857534 89.808090 -124.197417 2.596999 83.652972 15.672889 7.131037 -2.713490 -5.842034 2.566856 27.059940 1.908735 10.464570 -28.510511 nan nan nan -14.075986 -9.405066 -12.387931 3.456048 -7.069819 14.204017 5.853088 -2.477397 -2.693280 nan nan nan -6.834297 1.118149 2.363832 8.240144 -7.397943 14.256044 1.291508 -1.201005 -8.533719 3.593659 -20.741650 17.581179 5.286026 -17.236458 18.729139 -19.318921 -10.331051 6.666539 -62.371251 -44.099339 30.622187 154.010293 -67.248155 -125.906782 -4.016649 -18.939029 -5.216885 20.264105 4.532175 -1.561199 36.799593 17.335607 -3.797596 -76.814844 47.985858 -57.282396 4.281524 6.148888 -2.132385 
-17.955591 -0.860910 89.808403 -124.190596 2.588401 83.609750 15.694018 7.114772 -2.646991 -5.843458 2.535452 26.962142 1.919253 10.443912 -28.447661 nan nan nan -14.088401 -9.408367 -12.350475 3.430538 -7.060788 14.217059 5.828549 -2.470880 -2.698443 nan nan nan -6.837609 1.093650 2.402570 8.236571 -7.398620 14.262990 1.285863 -1.228332 -8.508193 3.650030 -20.708640 17.521988 5.183822 -17.241142 18.729268 -19.187403 -10.192309 6.568100 -62.578182 -44.061687 30.750562 154.048318 -67.218744 -125.869514 -4.109265 -18.877973 -5.167740 20.189841 4.442949 -1.633027 36.953121 17.497945 -3.629702 -76.816908 47.927549 -57.153587 4.366168 6.100007 -2.175191 
-17.941589 -0.857862 89.826088 -124.174795 2.608537 83.564429 15.759007 7.132546 -2.647479 -5.882002 2.516452 27.032287 1.847700 10.326216 -28.337012 nan nan nan -14.018696 -9.330448 -12.318110 3.297983 -7.032210 14.318679 5.790691 -2.550676 -2.918433 nan nan nan -6.911749 1.082987 2.532922 8.226241 -7.365355 14.164663 1.276858 -1.147408 -8.379138 3.467153 -20.492593 17.544766 5.495961 -17.445893 18.421455 -18.898710 -10.117807 6.492329 -63.111684 -44.150741 31.181167 153.874576 -67.370862 -125.738510 -3.833221 -19.026247 -5.572554 20.187033 4.352466 -1.730996 37.088174 17.493621 -3.576304 -76.928684 47.878464 -57.311869 4.134699 6.207143 -2.429948 
-17.894123 -0.858317 89.811447 -124.215800 2.753311 83.357382 16.058492 7.341012 -2.558514 -6.194433 2.213885 27.255242 1.718767 10.424675 -28.257262 nan nan nan -13.789161 -9.229789 -12.156121 3.180261 -6.653547 14.526431 4.437128 -2.590189 -4.082881 nan nan nan -7.064846 1.163162 2.782257 8.490758 -7.373554 14.516178 1.470406 -1.063544 -8.382998 3.650818 -20.081061 17.005557 5.760138 -17.716881 17.539870 -18.530103 -9.827713 6.559906 -64.047566 -44.738991 31.655970 153.844116 -67.449594 -125.933815 -3.890689 -19.217298 -6.000183 19.668333 4.176484 -1.747536 37.334616 17.927624 -3.838622 -77.050212 47.991197 -57.338426 4.261688 6.380437 -2.935698 
-17.882210 -0.878646 89.824722 -124.209401 2.809367 83.445748 16.129220 7.391409 -2.720287 -6.282319 2.228871 27.346335 1.618755 10.491944 -28.264948 nan nan nan -13.684080 -9.138604 -12.244256 3.140818 -6.525879 14.573299 4.374224 -2.767980 -4.121528 nan nan nan -7.089522 1.173347 2.628131 8.487412 -7.361425 14.486962 1.505358 -0.979105 -8.241013 3.793744 -20.057110 16.892854 5.777558 -17.734404 17.423678 -18.459545 -10.035244 6.617895 -64.034799 -44.802340 31.574386 153.882114 -67.501699 -125.879903 -3.665726 -19.165994 -6.064916 19.562105 4.235153 -1.767709 37.385233 17.739606 -3.993751 -77.133999 48.033501 -57.431357 4.112157 6.402418 -3.047472 
-17.900303 -0.904167 89.828354 -124.168230 2.810157 83.514260 16.109345 7.345935 -2.819706 -6.276789 2.293176 27.368405 1.630224 10.484683 -28.276178 nan nan nan -13.710906 -9.181055 -12.320625 3.217033 -6.594915 14.644322 4.479438 -2.776931 -3.943465 nan nan nan -7.112976 1.184184 2.488609 8.469284 -7.388043 14.535893 1.522526 -0.965940 -8.230797 3.869448 -20.069771 16.849470 5.756410 -17.760081 17.515200 -18.437224 -10.160651 6.695117 -63.961415 -44.866143 31.397562 153.727283 -67.405313 -125.662632 -4.260662 -19.200451 -5.601006 19.582628 4.276308 -1.667940 37.299495 17.656478 -4.193910 -77.305704 47.967259 -57.333502 4.785965 6.345822 -2.351608 
-17.927761 -0.913755 89.837936 -124.175351 2.824077 83.399511 16.170961 7.369013 -2.650886 -6.228434 2.355346 27.349414 1.704859 10.189487 -28.204995 nan nan nan -13.714818 -9.299765 -12.164421 3.272189 -6.631480 14.697717 4.617660 -2.526574 -3.699024 nan nan nan -7.418594 1.337902 2.621871 8.616864 -7.463823 14.767843 1.775744 -0.861180 -8.488504 4.258063 -19.707024 16.482580 5.602233 -18.385946 17.762895 -18.367137 -10.113327 7.057565 -64.583883 -45.269189 31.806020 152.276678 -67.471216 -125.718037 -5.561801 -20.142673 -4.407530 19.890819 4.387892 -0.690339 36.380624 17.824153 -4.900366 -77.771204 47.609750 -57.797304 6.024550 6.515130 -1.460166 
-17.951172 -0.941313 89.839104 -124.191199 2.805049 83.411550 16.133358 7.315407 -2.652426 -6.246186 2.347351 27.354089 1.718728 10.230550 -28.205382 nan nan nan -13.759074 -9.300075 -12.173822 3.351730 -6.634291 14.716831 4.721003 -2.510835 -3.579389 nan nan nan -7.435172 1.371988 2.560073 8.605974 -7.456150 14.760592 1.792318 -0.900116 -8.423687 4.219023 -19.694903 16.485000 5.603699 -18.412663 17.773145 -18.235839 -10.082618 7.040939 -64.782261 -45.224849 31.866007 152.349828 -67.465763 -125.816741 -5.492719 -20.143449 -4.470038 19.826535 4.378175 -0.693990 36.380394 17.839960 -4.955561 -77.651623 47.673541 -57.766667 6.012875 6.531805 -1.394283 
